<?xml version="1.0" encoding="utf-8"?>
<!-- Generator: Adobe Illustrator 22.1.0, SVG Export Plug-In . SVG Version: 6.00 Build 0)  -->
<svg version="1.1" id="Layer_1" xmlns="http://www.w3.org/2000/svg" xmlns:xlink="http://www.w3.org/1999/xlink" x="0px" y="0px"
	 viewBox="0 0 100 100" style="enable-background:new 0 0 100 100;" xml:space="preserve">
<style type="text/css">
	.st0{stroke:#000000;stroke-width:3;stroke-miterlimit:10;}
	.st1{fill:url(#SVGID_1_);}
	.st2{fill:url(#SVGID_2_);}
	.st3{fill:url(#SVGID_3_);}
	.st4{fill:url(#SVGID_4_);}
</style>
<path class="st0" d="M44.4,41.6"/>
<path class="st0" d="M25.6,41.6"/>
<linearGradient id="SVGID_1_" gradientUnits="userSpaceOnUse" x1="27.2547" y1="71.1055" x2="84.8381" y2="41.8555">
	<stop  offset="0" style="stop-color:#36F2D4"/>
	<stop  offset="0.4073" style="stop-color:#4ECCFF"/>
	<stop  offset="1" style="stop-color:#DBA2E0"/>
</linearGradient>
<path class="st1" d="M64,65h-6V49.8c0-6.2,5-11.2,11.2-11.2h9.6v6h-9.6c-2.9,0-5.2,2.3-5.2,5.2V65z"/>
<linearGradient id="SVGID_2_" gradientUnits="userSpaceOnUse" x1="29.831" y1="76.1773" x2="87.4144" y2="46.9273">
	<stop  offset="0" style="stop-color:#36F2D4"/>
	<stop  offset="0.4073" style="stop-color:#4ECCFF"/>
	<stop  offset="1" style="stop-color:#DBA2E0"/>
</linearGradient>
<circle class="st2" cx="72.9" cy="54.3" r="3.6"/>
<linearGradient id="SVGID_3_" gradientUnits="userSpaceOnUse" x1="21.3888" y1="59.5574" x2="78.9721" y2="30.3074">
	<stop  offset="0" style="stop-color:#36F2D4"/>
	<stop  offset="0.4073" style="stop-color:#4ECCFF"/>
	<stop  offset="1" style="stop-color:#DBA2E0"/>
</linearGradient>
<path class="st3" d="M35.4,65h-6V49.8c0-6.2,5-11.2,11.2-11.2h4.9v6h-4.9c-2.9,0-5.2,2.3-5.2,5.2V65z"/>
<linearGradient id="SVGID_4_" gradientUnits="userSpaceOnUse" x1="14.7697" y1="46.5267" x2="72.353" y2="17.2767">
	<stop  offset="0" style="stop-color:#36F2D4"/>
	<stop  offset="0.4073" style="stop-color:#4ECCFF"/>
	<stop  offset="1" style="stop-color:#DBA2E0"/>
</linearGradient>
<circle class="st4" cx="22.5" cy="42.6" r="3.6"/>
</svg>
